<?xml version="1.0" encoding="UTF-8" standalone="no"?>
<!-- Created with Inkscape (http://www.inkscape.org/) -->
<svg xmlns:dc="http://purl.org/dc/elements/1.1/" xmlns:cc="http://creativecommons.org/ns#" xmlns:rdf="http://www.w3.org/1999/02/22-rdf-syntax-ns#" xmlns:svg="http://www.w3.org/2000/svg" xmlns="http://www.w3.org/2000/svg" xmlns:xlink="http://www.w3.org/1999/xlink" xmlns:sodipodi="http://sodipodi.sourceforge.net/DTD/sodipodi-0.dtd" xmlns:inkscape="http://www.inkscape.org/namespaces/inkscape" width="210mm" height="297mm" viewBox="0 0 210 297" version="1.1" id="svg8" enable-background="new">
  <defs id="defs2">
    <linearGradient id="linearGradient4977">
      <stop style="stop-color:#cccccc;stop-opacity:1" offset="0" id="stop4973"/>
      <stop style="stop-color:#ffffff;stop-opacity:1" offset="1" id="stop4975"/>
    </linearGradient>
    <linearGradient xlink:href="#linearGradient4977" id="linearGradient4979" x1="33.888171" y1="30.236159" x2="42.97266" y2="25.93668" gradientUnits="userSpaceOnUse"/>
    <filter style="color-interpolation-filters:sRGB" id="filter859">
      <feBlend mode="multiply" in2="BackgroundImage" id="feBlend861"/>
    </filter>
  </defs>
  
  <metadata id="metadata5">
    
  </metadata>
  <g id="layer2" style="display:none">
    <image y="0.9690479" x="-3.1498189" id="image4674" preserveAspectRatio="none" height="136.28064" width="219.4782"/>
  </g>
  <g id="layer21" style="display:none">
    <image y="-219.69685" x="17.955631" id="image1150" preserveAspectRatio="none" height="462.84448" width="347.13336" style="fill:none"/>
  </g>
  <g id="layer20" style="display:none">
    <g id="layer5" style="display:inline">
      <path style="fill:#8cd5da;fill-opacity:1;stroke:#000000;stroke-width:2.96499991;stroke-linecap:round;stroke-linejoin:round;stroke-miterlimit:4;stroke-dasharray:none;stroke-opacity:1" d="m 22.985179,109.10952 c -1.247258,2.93997 -1.549136,6.99303 -3.741773,8.8199 -2.857879,2.20141 -3.173341,2.15307 -6.147199,3.20723 3.853135,1.40316 5.959196,2.147 10.156242,2.40542 4.931789,0.10381 8.027616,-1.30397 11.22532,-3.4745 l -2.672696,-8.55262 z" id="path4987"/>
    </g>
    <g id="layer1" style="display:inline">
      <path style="fill:#8cd5da;fill-opacity:1;stroke:#000000;stroke-width:2.96499991;stroke-linecap:butt;stroke-linejoin:round;stroke-miterlimit:4;stroke-dasharray:none;stroke-opacity:1" d="M 18.709821,80.419641 C 19.064618,68.998672 21.560399,59.732589 33.261905,46.590773 46.159816,35.210602 57.840055,34.266394 66.145833,33.172617 c 8.241849,-1.133928 26.923368,0.322644 36.120787,3.157466 9.3723,3.555989 16.16592,9.252753 21.52059,15.741344 4.52433,6.402845 10.7518,17.283293 13.98511,21.733632 4.11128,5.3082 4.5306,5.60153 7.18155,8.693451 2.55124,3.086436 6.80376,5.958194 8.71637,6.158325 1.8746,0.144459 5.55327,-1.368659 6.0247,-3.890466 -4.82788,-1.71039 -7.91989,-4.432739 -9.13825,-7.9375 -1.21449,-3.460506 -1.43084,-6.940916 -0.78363,-14.174109 8.54159,3.457391 5.52362,4.384941 7.4765,5.959843 1.68849,1.499504 3.25886,2.000794 5.23828,2.722148 2.32627,0.591733 5.10062,-0.715837 5.71156,0.578427 0.58924,1.377614 0.25925,3.670348 1.76772,4.132842 1.36957,0.543431 2.76162,-2.164429 4.65788,-2.809926 2.39385,-0.188988 5.3481,1.907795 7.55003,2.486488 1.91836,0.667801 4.70186,0.06656 6.48372,-1.532049 1.48991,-2.174291 -0.55916,-1.060525 7.69988,-1.521404 0.42827,4.211352 0.46643,8.036403 -0.75596,9.638394 -2.79364,3.529715 -3.47286,4.442238 -8.50446,6.047618 -4.97484,0.94367 -9.04193,1.526352 -19.27678,-1.322915 -2.07621,5.038349 -2.99463,7.135455 -6.61459,12.095236 -3.1498,4.472718 -10.62693,8.548068 -14.55208,10.394348 -3.79714,1.88452 -11.06104,3.89777 -15.30804,5.85863 -4.59871,1.38591 -22.43002,6.23691 -34.212404,7.98892 -10.988314,1.96347 -38.552699,2.59441 -47.430448,1.27149 -8.935219,-1.58624 -15.456422,-2.60522 -20.410713,-7.55951 -4.892361,-5.30006 -6.922647,-9.54183 -7.9375,-14.17412 -1.640388,-6.014036 -2.953243,-12.594053 -2.645834,-22.489579 z" id="path4677"/>
      <path style="fill:#8cd5da;fill-opacity:1;stroke:#000000;stroke-width:0;stroke-linecap:butt;stroke-linejoin:miter;stroke-miterlimit:4;stroke-dasharray:none;stroke-opacity:1" d="m 101.29762,110.65774 11.71726,8.31547 25.70238,0.37798 -15.11905,-17.00893 z" id="path4992"/>
    </g>
    <g id="layer11" style="display:inline">
      <path style="display:inline;fill:url(#linearGradient4979);fill-opacity:1;stroke:#000000;stroke-width:2.96499991;stroke-linecap:round;stroke-linejoin:round;stroke-miterlimit:3.9000001;stroke-dasharray:none;stroke-opacity:1" d="m 47.306706,45.766643 c -1.603618,-2.850875 -2.700913,-4.814773 -3.58243,-7.087967 -0.758704,-1.821665 -1.914535,-5.383151 -2.56616,-8.730963 -1.125944,-4.495145 -3.919025,-10.657429 -5.878538,-15.986143 4.721761,4.009043 8.627516,6.059669 14.165284,12.027129 3.185394,3.407775 4.628267,5.459335 9.888974,10.156241 0.196961,3.728258 0.03379,6.178534 -2.405428,8.285356 -3.018246,1.768366 -5.78035,2.159134 -9.621702,1.336347 z" id="path4971"/>
      <path style="display:inline;fill:none;stroke:#000000;stroke-width:2.56500006;stroke-linecap:round;stroke-linejoin:miter;stroke-miterlimit:4;stroke-dasharray:none;stroke-opacity:1" d="m 45.546131,40.732141 c 1.307167,0.346479 3.347353,0.151772 4.771948,-0.236234 1.485462,-0.472471 1.90563,-1.559153 2.929316,-2.4096" id="path4985"/>
      <path style="display:inline;fill:none;stroke:#000000;stroke-width:2.86500001;stroke-linecap:butt;stroke-linejoin:miter;stroke-miterlimit:4;stroke-dasharray:none;stroke-opacity:1" d="m 52.318009,28.861845 c 2.265734,4.814515 -9.087162,5.87993 -9.087162,5.87993" id="path890"/>
      <path style="display:inline;fill:none;stroke:#000000;stroke-width:2.7650001;stroke-linecap:butt;stroke-linejoin:miter;stroke-miterlimit:4;stroke-dasharray:none;stroke-opacity:1" d="m 41.293142,27.124594 c 1.247173,-0.199863 2.262327,0.556239 3.975633,-0.233863 1.226919,-0.714322 1.882023,-1.481118 1.937704,-2.739511" id="path892"/>
    </g>
    <g id="layer16" style="display:none">
      <path style="fill:none;stroke:#000000;stroke-width:0.26458332px;stroke-linecap:butt;stroke-linejoin:miter;stroke-opacity:1" d="m 35.279573,13.96157 6.013564,13.163024" id="path923"/>
      <path style="fill:#ff0c00;fill-opacity:1;stroke:none;stroke-width:0.26458332px;stroke-linecap:butt;stroke-linejoin:miter;stroke-opacity:1" d="m 35.279573,13.96157 3.462986,8.627715 c 1.070933,0.180682 2.141865,0.803842 3.212798,0 1.361168,-0.9488 1.700892,-2.267857 1.700892,-2.267857 z" id="path925"/>
      <path style="fill:#ff9d00;fill-opacity:1;stroke:none;stroke-width:0.26458332px;stroke-linecap:butt;stroke-linejoin:miter;stroke-opacity:1" d="m 39.422255,26.389603 5.846513,0.501128 1.937711,-2.739511 -3.55023,-3.829792 c -0.67534,0.730797 0.07788,1.283025 -2.02902,2.192767 -2.154464,0.706691 -1.927542,0.05259 -2.88467,0.07509 z" id="path927"/>
      <path style="fill:#fffd00;fill-opacity:1;stroke:none;stroke-width:0.26458332px;stroke-linecap:butt;stroke-linejoin:miter;stroke-opacity:1" d="m 41.293137,27.124594 3.975631,-0.233863 1.937711,-2.739511 2.839738,3.173827 -3.340867,2.605876 -5.278575,0.400905 z" id="path929"/>
      <path style="fill:#00ff1f;fill-opacity:1;stroke:none;stroke-width:0.26458332px;stroke-linecap:butt;stroke-linejoin:miter;stroke-opacity:1" d="m 49.879174,27.18306 2.639289,3.215586 -2.539061,2.071338 -6.74856,2.271792 -1.862532,-4.660513 c 1.642962,-0.104494 2.618047,0.371413 5.128236,-0.517836 1.726828,-0.718675 2.269005,-1.511742 3.382628,-2.380367 z" id="path931"/>
      <path style="fill:#006bff;fill-opacity:1;stroke:none;stroke-width:0.26458332px;stroke-linecap:butt;stroke-linejoin:miter;stroke-opacity:1" d="m 43.230842,34.741776 5.433592,-0.765959 5.669642,-3.165549 2.504093,3.02381 -3.590782,4.252229 -5.716881,2.929316 -1.984378,-0.283482 z" id="path933"/>
      <path style="fill:#fd00ff;fill-opacity:1;stroke:none;stroke-width:0.26458332px;stroke-linecap:butt;stroke-linejoin:miter;stroke-opacity:1" d="m 59.333828,36.14494 -3.157117,-1.554911 -2.929324,3.496278 -7.701259,2.645834 1.76057,5.034502 7.171668,-0.363728 4.344178,-2.969879 z" id="path935"/>
    </g>
    <g id="layer17" style="display:none">
      <path style="display:inline;fill:none;fill-opacity:1;stroke:#000000;stroke-width:2.96499991;stroke-linecap:round;stroke-linejoin:round;stroke-miterlimit:3.9000001;stroke-dasharray:none;stroke-opacity:1" d="m 47.306699,45.766644 c -1.60362,-2.850875 -2.70091,-4.814774 -3.582427,-7.087968 -0.758704,-1.821665 -1.914535,-5.383151 -2.56616,-8.730963 -1.125944,-4.495145 -3.919025,-10.657429 -5.878538,-15.986143 4.721761,4.009043 8.627516,6.059669 14.165285,12.027129 3.18539,3.407775 4.62827,5.459335 9.88897,10.156241 0.19696,3.728258 0.0338,6.178533 -2.40543,8.285357 -3.01824,1.768364 -5.78035,2.159132 -9.6217,1.336347 z" id="path4971-5"/>
      <path style="display:inline;fill:none;stroke:#000000;stroke-width:2.56500006;stroke-linecap:round;stroke-linejoin:miter;stroke-miterlimit:4;stroke-dasharray:none;stroke-opacity:1" d="m 45.546129,40.732142 c 1.30716,0.346477 3.34735,0.15177 4.77195,-0.236236 1.48546,-0.472469 1.90563,-1.559152 2.92931,-2.409599" id="path4985-3"/>
      <path style="display:inline;fill:none;stroke:#000000;stroke-width:2.86500001;stroke-linecap:butt;stroke-linejoin:miter;stroke-miterlimit:4;stroke-dasharray:none;stroke-opacity:1" d="m 52.318009,28.861845 c 2.26573,4.814515 -9.087166,5.87993 -9.087166,5.87993" id="path890-5"/>
      <path style="display:inline;fill:none;stroke:#000000;stroke-width:2.76500034;stroke-linecap:butt;stroke-linejoin:miter;stroke-miterlimit:4;stroke-dasharray:none;stroke-opacity:1" d="m 41.293138,27.124594 c 1.247173,-0.199863 2.262327,0.556239 3.975631,-0.233863 1.22692,-0.714322 1.88202,-1.481118 1.93771,-2.739511" id="path892-6"/>
    </g>
    <g id="layer13" style="display:inline">
      <path id="path898" style="fill:#769b9d;fill-opacity:0.53333285;fill-rule:nonzero;stroke:none;stroke-width:13.83652687;stroke-linecap:round;stroke-linejoin:round;stroke-miterlimit:4;stroke-dasharray:none;stroke-opacity:1;paint-order:normal;filter:url(#filter859)" d="m 168.67383,144.0957 a 34.024687,25.651078 0 0 0 -9.38867,17.64649 34.024687,25.651078 0 0 0 34.02539,25.65039 34.024687,25.651078 0 0 0 34.02539,-25.65039 34.024687,25.651078 0 0 0 -6.27149,-14.78516 c 3.9e-4,0.0423 0.01,0.0948 0.008,0.13477 -0.0395,0.93268 -0.38787,1.81637 -0.71289,2.70312 3e-4,0.16403 -5.3e-4,0.32816 0,0.49219 0.003,0.82026 -0.005,1.64074 -0.0117,2.46094 0.028,1.38162 0.12054,2.76847 -0.19532,4.13086 0.0121,-0.35252 0.12571,-1.39811 0.0371,-1.05664 -0.27212,1.05097 -0.19887,2.18913 -0.59179,3.20117 -0.12815,0.33011 -1.3302,2.09337 -2.17188,2.67773 -0.0557,0.6274 0.26234,-0.0161 -0.7539,1.67383 0.0401,-0.27953 0.0171,-0.0469 -0.29883,0.43945 -0.3371,0.51874 -0.64145,1.06139 -1.02735,1.54493 -0.89584,1.12249 -2.08624,1.92309 -3.41797,2.37304 -0.0118,0.008 -0.0233,0.0171 -0.0351,0.0254 -0.0787,0.0553 -0.0894,0.057 -0.13477,0.0859 -0.13245,0.11863 -0.0977,0.0924 -0.28515,0.25781 -0.3758,0.27625 -0.73954,0.57037 -1.12696,0.83008 -0.10565,0.0708 -0.311,0.21391 -0.4707,0.31445 -0.001,8.8e-4 -0.003,0.001 -0.004,0.002 -0.39764,0.30043 -0.72633,0.52242 -0.25781,0.11133 -1.4345,1.13469 -1.26056,1.14718 -2.98633,1.88671 -0.22322,0.0957 -0.49569,0.31877 -0.72461,0.35547 -0.29703,0.29002 -0.59241,0.58188 -0.93554,0.8125 -1.1933,0.80202 -2.16753,1.03477 -3.45899,1.33203 -1.34713,0.45724 -1.64802,0.51978 -2.80078,0.56446 -1.36293,0.63735 -2.67615,1.22684 -4.34765,0.97656 0.10721,-0.083 0.14209,-0.0931 -0.19727,-0.0332 -0.33676,0.0595 -0.66628,0.15674 -1.00391,0.21093 -1.78844,0.28717 -1.48979,0.28367 -2.68164,0.27539 -0.25205,-0.002 -0.50576,-0.007 -0.75781,-0.01 -0.92846,-0.0238 -1.84423,-0.0163 -2.77148,0.10156 -0.61758,-0.089 -1.24845,-0.11526 -1.85352,-0.26758 -0.0106,-0.003 -0.0207,-0.007 -0.0312,-0.01 -0.16831,0.0185 -0.33616,0.0265 -0.50586,0.0156 -3.81502,-0.24548 -5.73582,-2.65092 -7.46875,-5.70117 -0.25393,-0.71175 -0.48317,-1.41079 -0.69727,-2.12695 -0.89466,-1.12151 -0.87361,-1.00962 -1.59179,-2.81055 -0.0159,-0.0399 -0.0395,-0.11628 -0.0625,-0.18164 -0.22971,-0.39325 -0.45975,-0.78644 -0.68945,-1.17969 -0.3978,-2.01304 -0.69364,-3.35972 -0.48438,-5.43359 0.0672,-0.34745 0.12392,-0.69761 0.20117,-1.04297 0.0514,-0.22991 0.0138,-0.81099 0.16992,-0.72656 0.004,-0.22977 0.0142,-0.60714 0.002,-0.39844 0.004,-1.36797 -0.0817,-2.73684 0.008,-4.10352 -0.12149,-0.29693 -0.24374,-0.59369 -0.36524,-0.89062 -0.0185,-0.14741 -0.0634,-0.29827 -0.11132,-0.45117 -1.08935,-1.11196 -2.06659,-2.33973 -2.75196,-3.73438 -0.78757,-0.81592 -1.47064,-1.7153 -2.04101,-2.69336 z m 27.78906,1.10547 c 0.01,0.003 0.0907,0.0135 0.11523,0.0176 0.003,-4e-4 0.005,3.9e-4 0.008,0 -0.0124,-0.002 -0.0247,-0.005 -0.0371,-0.008 -0.0274,-0.003 -0.0598,-0.007 -0.0859,-0.01 z m -22.68945,5.8125 c 0.0587,0.10132 0.12444,0.20063 0.1875,0.29883 0.0397,0.0619 -0.0533,-0.13855 -0.0918,-0.20117 -0.0177,-0.0288 -0.0629,-0.0644 -0.0957,-0.0977 z m 44.29492,8.15235 c -0.005,0.004 -0.0166,0.0301 -0.0332,0.084 -0.35855,1.16078 -0.51187,1.80605 -0.57813,2.19336 0.0547,-0.0973 0.0835,-0.21323 0.45899,-1.08594 0.0479,-0.46961 0.18393,-1.21645 0.15234,-1.1914 z m -18.70117,14.83984 c -0.20966,0.0955 -0.41158,0.19089 -0.61719,0.28711 0.0814,-0.024 0.12816,-0.0346 0.22461,-0.0644 0.144,-0.0445 0.52974,-0.28514 0.39258,-0.22266 z m -0.69336,0.30664 c -0.47812,0.0184 -1.10667,0.0436 -2.06445,0.10156 1.10329,0.0756 1.19994,0.14722 2.06445,-0.10156 z m -11.97852,0.91406 c -0.15081,0.0242 -0.30083,0.0636 -0.45117,0.0977 0.10895,0.0433 0.13264,0.002 0.45117,-0.0977 z" transform="scale(0.26458333)"/>
    </g>
    <g id="layer7" style="filter:url(#filter859)">
      <path style="fill:#bcdadc;fill-opacity:1;stroke:#000000;stroke-width:0;stroke-linecap:butt;stroke-linejoin:miter;stroke-miterlimit:4;stroke-dasharray:none;stroke-opacity:1" d="m 47.360429,124.01176 c -0.18419,-3.55987 9.169664,-5.30066 11.695485,-5.97163 5.734322,-1.35729 19.367544,2.47567 27.161435,1.96537 9.186664,-0.0134 13.730645,-1.06629 20.690461,-4.48151 l 6.10707,3.44922 -29.573066,6.3749 z" id="path4998"/>
      <ellipse style="fill:#769b9d;fill-opacity:0.53403147;stroke:#000000;stroke-width:0;stroke-linecap:round;stroke-linejoin:round;stroke-miterlimit:4;stroke-dasharray:none;stroke-opacity:1" id="path5064" cx="115.8497" cy="64.54464" rx="2.0788691" ry="3.0238097"/>
      <ellipse style="fill:#769b9d;fill-opacity:0.53403147;stroke:#000000;stroke-width:0;stroke-linecap:round;stroke-linejoin:round;stroke-miterlimit:4;stroke-dasharray:none;stroke-opacity:1" id="path5066" cx="126.24404" cy="73.238091" rx="1.5119048" ry="2.6458333"/>
      <ellipse style="fill:#769b9d;fill-opacity:0.53403147;stroke:#000000;stroke-width:0;stroke-linecap:round;stroke-linejoin:round;stroke-miterlimit:4;stroke-dasharray:none;stroke-opacity:1" id="path5068" cx="120.38541" cy="72.671127" rx="1.3229166" ry="1.7008928"/>
      <ellipse style="fill:#769b9d;fill-opacity:0.53403147;stroke:#000000;stroke-width:0;stroke-linecap:round;stroke-linejoin:round;stroke-miterlimit:4;stroke-dasharray:none;stroke-opacity:1" id="path5070" cx="125.67135" cy="58.93232" rx="2.7527709" ry="5.8586316"/>
      <ellipse style="fill:#769b9d;fill-opacity:0.53403147;stroke:#000000;stroke-width:0;stroke-linecap:round;stroke-linejoin:round;stroke-miterlimit:4;stroke-dasharray:none;stroke-opacity:1" id="path5072" cx="133.94867" cy="71.537201" rx="1.6570035" ry="2.4568453"/>
      <path id="path5074" transform="scale(0.26458333)" style="fill:#769b9d;fill-opacity:0.53403147;stroke:#000000;stroke-width:0;stroke-linecap:round;stroke-linejoin:round;stroke-miterlimit:4;stroke-dasharray:none;stroke-opacity:1" d="m 386.51953,137.31055 a 18.214283,23.57143 0 0 0 -7.23437,18.78125 18.214283,23.57143 0 0 0 18.21484,23.57031 18.214283,23.57143 0 0 0 18.21484,-23.57031 18.214283,23.57143 0 0 0 -0.83203,-6.96485 c -1.02307,-0.40004 -2.33476,-0.79632 -4.05664,-1.17383 -1.59912,-0.35057 2.06646,2.78459 2.14258,4.41993 3.4e-4,0.008 -2.35545,-0.59859 -5.4668,-1.9375 -2.63217,-0.44814 -4.60196,-2.80679 -6.08984,-5.00586 -0.91611,0.0106 -3.64397,-0.61112 -4.28711,-0.85157 -0.83981,-0.31395 -1.69214,-0.62656 -2.46094,-1.08789 -0.81464,-0.48881 -1.50373,-1.1618 -2.25586,-1.74218 -0.5786,-0.29103 -1.02805,-0.7706 -1.57226,-1.11133 -0.16063,-0.10065 0.27696,0.25963 0.41601,0.38867 -0.55434,-0.31793 -1.13534,-0.59615 -1.66406,-0.95508 -0.47063,-0.31944 -0.88269,-0.71565 -1.32422,-1.07422 -0.10016,-0.0813 0.20025,0.1612 0.30078,0.24219 -0.66665,-0.59025 -1.37132,-1.23395 -2.04492,-1.92773 z"/>
      <path id="path5078" transform="scale(0.26458333)" style="fill:#769b9d;fill-opacity:0.53403147;stroke:#000000;stroke-width:0;stroke-linecap:round;stroke-linejoin:round;stroke-miterlimit:4;stroke-dasharray:none;stroke-opacity:1" d="m 431.24219,156.11523 a 19.642872,27.670232 0 0 0 -5.44922,19.08008 19.642872,27.670232 0 0 0 19.64258,27.67188 19.642872,27.670232 0 0 0 18.56054,-18.70117 c -0.20915,-0.16474 -0.0608,-0.0515 -0.36523,-0.28711 -0.6062,-0.84111 -1.2797,-1.63755 -1.81836,-2.52344 -0.23093,-0.37965 -0.34864,-0.82003 -0.47461,-1.24609 -0.0763,-0.25815 1.3333,0.88751 0.49023,0.11718 -1.24957,-1.14172 -2.79098,-1.93723 -3.97265,-3.16211 -0.4147,-0.42439 -0.73037,-0.71522 -0.91211,-0.91797 -1.00627,-0.0796 -1.99066,-0.30215 -2.94922,-0.73046 -0.88524,-0.43686 -1.82272,-0.77861 -2.6543,-1.31055 -2.64816,-1.69391 -4.07642,-4.51059 -6.26953,-6.63477 -2.27325,-2.17182 -4.99083,-3.89257 -6.52734,-6.67578 -0.39578,-0.10382 -0.78946,-0.21362 -1.17578,-0.34765 -2.36044,-0.81899 -4.20036,-2.68415 -6.125,-4.33204 z m 22.29492,5.63282 c 0.80522,0.94111 1.46205,1.97337 2.28516,2.875 -0.28442,-0.7452 -0.5729,-1.4914 -0.96094,-2.18946 -0.0265,-0.0467 -0.0604,0.10557 -0.11328,0.11329 -0.0835,0.0121 -0.1758,-0.0145 -0.2461,-0.0605 -0.30878,-0.20138 -0.58423,-0.4478 -0.87695,-0.67188 -0.0313,-0.0199 -0.0572,-0.0459 -0.0879,-0.0664 z m 3.95898,4.41015 c 0.0482,0.0455 0.0923,0.0887 0.12696,0.1211 0.0591,0.0178 0.1027,0.0297 0.16015,0.0469 -0.0112,-0.0342 -0.0375,-0.10497 -0.0605,-0.16406 -0.0755,-5e-4 -0.15113,-0.003 -0.22657,-0.004 z m 0.66016,0.0234 c 0.1384,0.0534 0.27451,0.11528 0.41797,0.15234 0.0654,0.017 -0.0855,-0.12539 -0.15234,-0.13476 -0.0881,-0.0123 -0.17693,-0.0121 -0.26563,-0.0176 z"/>
      <ellipse style="fill:#769b9d;fill-opacity:0.53403147;stroke:#000000;stroke-width:0;stroke-linecap:round;stroke-linejoin:round;stroke-miterlimit:4;stroke-dasharray:none;stroke-opacity:1" id="path5080" cx="109.42411" cy="53.961308" rx="1.3229166" ry="1.8459917"/>
      <ellipse style="fill:#769b9d;fill-opacity:0.53403147;stroke:#000000;stroke-width:0;stroke-linecap:round;stroke-linejoin:round;stroke-miterlimit:4;stroke-dasharray:none;stroke-opacity:1" id="path5082" cx="100.73066" cy="50.370537" rx="0.83423382" ry="1.1683207"/>
      <ellipse style="fill:#769b9d;fill-opacity:0.53403147;stroke:#000000;stroke-width:0;stroke-linecap:round;stroke-linejoin:round;stroke-miterlimit:4;stroke-dasharray:none;stroke-opacity:1" id="path5084" cx="122.0863" cy="64.33371" rx="0.75595236" ry="0.92299581"/>
      <ellipse style="fill:#769b9d;fill-opacity:0.53403147;stroke:#000000;stroke-width:0;stroke-linecap:round;stroke-linejoin:round;stroke-miterlimit:4;stroke-dasharray:none;stroke-opacity:1" id="path5086" cx="134.75244" cy="81.931541" rx="1.3229166" ry="1.5119048"/>
      <ellipse style="fill:#769b9d;fill-opacity:0.53403147;stroke:#000000;stroke-width:0;stroke-linecap:round;stroke-linejoin:round;stroke-miterlimit:4;stroke-dasharray:none;stroke-opacity:1" id="path5088" cx="140.22917" cy="79.852676" rx="2.6458333" ry="3.96875"/>
      <ellipse style="fill:#769b9d;fill-opacity:0.53403147;stroke:#000000;stroke-width:0;stroke-linecap:round;stroke-linejoin:round;stroke-miterlimit:4;stroke-dasharray:none;stroke-opacity:1" id="path5090" cx="129.45685" cy="68.324409" rx="1.7008928" ry="2.5141656"/>
      <ellipse style="fill:#769b9d;fill-opacity:0.53403147;stroke:#000000;stroke-width:0;stroke-linecap:round;stroke-linejoin:round;stroke-miterlimit:4;stroke-dasharray:none;stroke-opacity:1" id="path5094" cx="118.56744" cy="57.292641" rx="1.4365736" ry="2.1715648"/>
      <ellipse style="fill:#769b9d;fill-opacity:0.53403147;stroke:#000000;stroke-width:0;stroke-linecap:round;stroke-linejoin:round;stroke-miterlimit:4;stroke-dasharray:none;stroke-opacity:1" id="path5096" cx="131.93091" cy="76.836723" rx="1.503391" ry="1.8708867"/>
      <ellipse style="fill:#769b9d;fill-opacity:0.53403147;stroke:#000000;stroke-width:0;stroke-linecap:round;stroke-linejoin:round;stroke-miterlimit:4;stroke-dasharray:none;stroke-opacity:1" id="path5098" cx="137.20949" cy="86.25798" rx="0.63476509" ry="0.8018086"/>
      <ellipse style="fill:#769b9d;fill-opacity:0.53333285;fill-rule:nonzero;stroke:none;stroke-width:1.4340632;stroke-linecap:round;stroke-linejoin:round;stroke-miterlimit:4;stroke-dasharray:none;stroke-opacity:1;paint-order:normal" id="path893" cx="174.18593" cy="85.226395" rx="4.2188191" ry="3.1307511"/>
      <ellipse style="fill:#769b9d;fill-opacity:0.53333285;fill-rule:nonzero;stroke:none;stroke-width:2.86500001;stroke-linecap:round;stroke-linejoin:round;stroke-miterlimit:4;stroke-dasharray:none;stroke-opacity:1;paint-order:normal" id="path895" cx="183.12946" cy="86.845238" rx="3.9687479" ry="1.5119038"/>
      <ellipse style="fill:#769b9d;fill-opacity:0.53333285;fill-rule:nonzero;stroke:none;stroke-width:2.86500001;stroke-linecap:round;stroke-linejoin:round;stroke-miterlimit:4;stroke-dasharray:none;stroke-opacity:1;paint-order:normal" id="path901" cx="179.7513" cy="82.049667" rx="1.2992932" ry="1.3465402"/>
      <ellipse style="fill:#769b9d;fill-opacity:0.53333285;fill-rule:nonzero;stroke:none;stroke-width:2.86500001;stroke-linecap:round;stroke-linejoin:round;stroke-miterlimit:4;stroke-dasharray:none;stroke-opacity:1;paint-order:normal" id="path903" cx="189.90942" cy="85.522324" rx="1.015811" ry="0.8976934"/>
      <ellipse style="fill:#769b9d;fill-opacity:0.53333285;fill-rule:nonzero;stroke:none;stroke-width:2.86500001;stroke-linecap:round;stroke-linejoin:round;stroke-miterlimit:4;stroke-dasharray:none;stroke-opacity:1;paint-order:normal" id="path905" cx="156.62389" cy="81.978798" rx="2.2678571" ry="2.1733632"/>
      <ellipse style="fill:#769b9d;fill-opacity:0.53333285;fill-rule:nonzero;stroke:none;stroke-width:2.86500001;stroke-linecap:round;stroke-linejoin:round;stroke-miterlimit:4;stroke-dasharray:none;stroke-opacity:1;paint-order:normal" id="path907" cx="155.91518" cy="77.773804" rx="1.0394346" ry="0.80319941"/>
      <ellipse style="fill:#769b9d;fill-opacity:0.53333285;fill-rule:nonzero;stroke:none;stroke-width:2.86500001;stroke-linecap:round;stroke-linejoin:round;stroke-miterlimit:4;stroke-dasharray:none;stroke-opacity:1;paint-order:normal" id="path909" cx="151.97005" cy="76.309151" rx="1.1103051" ry="1.3701636"/>
      <ellipse style="fill:#769b9d;fill-opacity:0.53333285;fill-rule:nonzero;stroke:none;stroke-width:2.86500001;stroke-linecap:round;stroke-linejoin:round;stroke-miterlimit:4;stroke-dasharray:none;stroke-opacity:1;paint-order:normal" id="path911" cx="154.97025" cy="75.907547" rx="0.28348213" ry="0.40159971"/>
    </g>
    <g id="layer6">
      <path style="fill:none;stroke:#000000;stroke-width:2.96499991;stroke-linecap:round;stroke-linejoin:round;stroke-miterlimit:4;stroke-dasharray:none;stroke-opacity:1" d="m 101.29762,110.27976 c 4.59871,4.03175 5.83438,5.03958 13.22916,8.69345 5.02999,2.26542 17.41841,2.04737 24.56846,0.37798 -15.42716,-12.02167 -11.7332,-12.81447 -15.11905,-17.76488" id="path4995"/>
    </g>
    <g id="layer4" style="display:none">
      <path style="fill:none;stroke:#000000;stroke-width:2.86500001;stroke-linecap:round;stroke-linejoin:miter;stroke-miterlimit:4;stroke-dasharray:none;stroke-opacity:1" d="m 41.426775,103.76413 c 1.870887,2.22725 3.250203,3.23746 7.416732,3.27406 3.944822,0.0396 6.894652,-1.05912 8.084901,-4.07587" id="path4687"/>
    </g>
    <g id="layer10" style="display:none">
      <path style="fill:#ffffff;fill-opacity:1;stroke:#000000;stroke-width:2.7650001;stroke-linecap:butt;stroke-linejoin:round;stroke-miterlimit:4;stroke-dasharray:none;stroke-opacity:1" d="m 62.54107,102.96232 c -2.006655,-3.006063 -14.432555,-0.17818 -21.648833,-0.26727 l 4.009044,0.53454 c -0.804127,3.53349 -0.05287,4.78235 1.831744,5.12538 2.992757,0.48618 2.16294,-1.82813 2.177299,-5.12538 0.08131,3.6521 -0.832223,5.55251 2.672694,6.14719 3.813227,-1.9727 1.781796,-2.9845 2.672694,-6.28083 z" id="path961"/>
    </g>
    <g id="layer14" style="display:none">
      <path style="fill:#ffffff;fill-opacity:1;stroke:#000000;stroke-width:2.86500001;stroke-linecap:butt;stroke-linejoin:round;stroke-miterlimit:4;stroke-dasharray:none;stroke-opacity:1" d="m 39.6875,109.14583 c 1.937128,-1.84353 2.551339,-2.57542 3.827008,-3.26004 1.267875,-0.74816 16.83569,-1.10243 18.09561,-0.51972 1.782445,0.78543 3.704919,3.61231 5.38616,5.14993 l -5.38616,-5.14993 -5.622397,-0.66146 c -0.645709,-2.92932 0.839257,-7.26394 -2.22061,-7.9375 -4.963833,-1.092674 -3.858506,0.0315 -3.449031,8.40997 -0.976438,-7.906001 0.912794,-7.724826 -3.16555,-7.748511 -5.517146,-0.105549 -2.614335,3.401781 -2.55134,6.425591 z" id="path983"/>
    </g>
    <g id="layer15" style="display:none">
      <path style="fill:#ffffff;fill-opacity:1;stroke:#000000;stroke-width:2.86500001;stroke-linecap:butt;stroke-linejoin:round;stroke-miterlimit:4;stroke-dasharray:none;stroke-opacity:1" d="m 41.643539,110.87804 c 1.93712,-1.84353 2.55134,-2.57542 3.827,-3.26004 1.028426,-0.38898 17.166201,-0.72957 18.09561,-0.51972 3.627588,1.74875 3.723189,3.75846 5.386161,5.14993 -1.795387,-1.71664 -1.808955,-3.43329 -5.386161,-5.14993 -0.813001,-0.16103 -3.068208,-0.0284 -11.29203,-0.18899 -0.512832,-7.442389 2.048266,-5.78753 -2.363741,-6.14489 -5.51715,-0.10555 -3.416149,1.79816 -3.353149,4.82197 z" id="path983-3"/>
    </g>
    <g id="layer18">
      <path style="display:inline;fill:none;stroke:#000000;stroke-width:2.86500001;stroke-linecap:round;stroke-linejoin:miter;stroke-miterlimit:4;stroke-dasharray:none;stroke-opacity:1" d="m 36.084183,106.27874 c 1.870887,2.22725 10.466481,1.63384 14.633009,1.67044 3.944823,0.0396 19.99086,0.5445 21.181109,-2.47225" id="path4687-3"/>
    </g>
    <g id="layer3" style="display:none">
      <ellipse style="fill:#000000;fill-opacity:0.98952876;stroke:#070707;stroke-width:2.96499991;stroke-miterlimit:4;stroke-dasharray:none;stroke-opacity:1" id="path4680" cx="27.528765" cy="96.013313" rx="3.7417734" ry="4.8108511"/>
      <ellipse style="fill:#000000;fill-opacity:0.96335078;stroke:#000000;stroke-width:2.96499991;stroke-miterlimit:4;stroke-dasharray:none;stroke-opacity:1" id="path4682" cx="81.650833" cy="94.810593" rx="4.6772165" ry="4.9444861"/>
    </g>
    <g id="layer8" style="display:none">
      <ellipse style="fill:#ffffff;fill-opacity:1;stroke:#000000;stroke-width:2.79999995;stroke-linecap:round;stroke-linejoin:round;stroke-miterlimit:4;stroke-dasharray:none;stroke-opacity:1;paint-order:normal" id="path864" ry="10.202262" rx="7.75034" cy="93.561867" cx="30.736473"/>
      <ellipse style="fill:#ffffff;fill-opacity:1;stroke:#000000;stroke-width:2.79999995;stroke-linecap:round;stroke-linejoin:round;stroke-miterlimit:4;stroke-dasharray:none;stroke-opacity:1;paint-order:normal" id="path868" cx="80.982666" cy="93.073341" rx="14.089341" ry="11.951185"/>
    </g>
    <g id="layer9" style="display:none">
      <ellipse style="fill:#000000;fill-opacity:1;stroke:#000000;stroke-width:3.97099996;stroke-linecap:round;stroke-linejoin:round;stroke-miterlimit:4;stroke-dasharray:none;stroke-opacity:1;paint-order:stroke markers fill" id="path863" cx="84.590805" cy="87.460686" rx="1.4699824" ry="1.6036172"/>
      <ellipse style="fill:#000000;fill-opacity:1;fill-rule:nonzero;stroke:#000000;stroke-width:3.27099991;stroke-linecap:round;stroke-linejoin:round;stroke-miterlimit:4;stroke-dasharray:none;stroke-opacity:1;paint-order:stroke markers fill" id="path865" cx="27.395126" cy="92.806076" rx="0.93544334" ry="1.3363476"/>
    </g>
    <g id="layer19">
      <ellipse style="fill:#ffffff;fill-opacity:0.95073888;fill-rule:nonzero;stroke:#000000;stroke-width:2.52619052;stroke-linecap:round;stroke-linejoin:round;stroke-miterlimit:4;stroke-dasharray:none;stroke-opacity:1;paint-order:normal" id="path918" cx="29.133776" cy="96.468811" rx="5.575963" ry="6.2973299"/>
      <ellipse style="fill:#ffffff;fill-opacity:0.95073888;fill-rule:nonzero;stroke:#000000;stroke-width:2.7650001;stroke-linecap:round;stroke-linejoin:round;stroke-miterlimit:4;stroke-dasharray:none;stroke-opacity:1;paint-order:normal" id="path922" cx="80.715401" cy="95.478775" rx="8.0180855" ry="7.7508163"/>
      <ellipse style="fill:#000000;fill-opacity:0.95073888;fill-rule:nonzero;stroke:none;stroke-width:4.12799549;stroke-linecap:round;stroke-linejoin:round;stroke-miterlimit:4;stroke-dasharray:none;stroke-opacity:1;paint-order:normal" id="path924" cx="30.657713" cy="98.380989" rx="1.463267" ry="1.4551606"/>
      <ellipse style="fill:#000000;fill-opacity:0.95073888;fill-rule:nonzero;stroke:none;stroke-width:4.12799549;stroke-linecap:round;stroke-linejoin:round;stroke-miterlimit:4;stroke-dasharray:none;stroke-opacity:1;paint-order:normal" id="path924-6" cx="80.122612" cy="97.946899" rx="1.463267" ry="1.4551606"/>
    </g>
    <g id="layer12" style="display:none">
      <path style="fill:#ffffff;fill-opacity:0.99004977;stroke:#000000;stroke-width:2.86500001;stroke-linecap:butt;stroke-linejoin:round;stroke-miterlimit:4;stroke-dasharray:none;stroke-opacity:1" d="m 48.108514,99.220548 c 1.247258,-1.49934 2.494516,0.215957 3.741774,-5.078122 0.126145,-6.418016 -2.672368,-5.524389 -4.009043,-8.285355 -25.657875,2.939965 -51.3328499,3.091586 -76.973624,8.819896 43.476266,5.060388 51.493929,3.029054 77.240893,4.543581 z" id="path980"/>
    </g>
  </g>
  <g style="display:inline" id="g1090">
    <g style="display:inline" id="g934">
      <path id="path932" d="m 23.519718,108.84225 c -1.247258,2.93997 -1.549136,6.99303 -3.741773,8.8199 -2.857879,2.20141 -3.173341,2.15307 -6.147199,3.20723 3.853135,1.40316 5.959196,2.147 10.156242,2.40542 4.931789,0.10381 8.027616,-1.30397 11.22532,-3.4745 l -2.672696,-8.55262 z" style="fill:#8cd5da;fill-opacity:1;stroke:none;stroke-width:2.96499991;stroke-linecap:round;stroke-linejoin:round;stroke-miterlimit:4;stroke-dasharray:none;stroke-opacity:1"/>
    </g>
    <g id="layer33">
      <path style="fill:#769b9d;fill-opacity:0.53333303;stroke:none;stroke-width:0.26458332px;stroke-linecap:butt;stroke-linejoin:miter;stroke-opacity:1" d="m 23.519718,108.84225 8.819894,2.40543 2.672696,8.55262 -1.670436,0.93544 c -2.160428,-1.20271 -3.318596,-0.68589 -6.481285,-3.60813 -3.663069,-4.23431 -2.547165,-4.37235 -3.808591,-6.54811 z" id="path1093"/>
    </g>
    <g style="display:inline" id="g940">
      <path id="path936" d="M 18.709821,80.419641 C 19.064618,68.998672 21.560399,59.732589 33.261905,46.590773 46.159816,35.210602 57.840055,34.266394 66.145833,33.172617 c 8.241849,-1.133928 26.923368,0.322644 36.120787,3.157466 9.3723,3.555989 16.16592,9.252753 21.52059,15.741344 4.52433,6.402845 10.7518,17.283293 13.98511,21.733632 4.11128,5.3082 4.5306,5.60153 7.18155,8.693451 2.55124,3.086436 6.80376,5.958194 8.71637,6.158325 1.8746,0.144459 5.55327,-1.368659 6.0247,-3.890466 -4.82788,-1.71039 -7.91989,-4.432739 -9.13825,-7.9375 -1.21449,-3.460506 -1.43084,-6.940916 -0.78363,-14.174109 8.54159,3.457391 5.52362,4.384941 7.4765,5.959843 1.68849,1.499504 3.25886,2.000794 5.23828,2.722148 2.32627,0.591733 5.10062,-0.715837 5.71156,0.578427 0.58924,1.377614 0.25925,3.670348 1.76772,4.132842 1.36957,0.543431 2.76162,-2.164429 4.65788,-2.809926 2.39385,-0.188988 5.3481,1.907795 7.55003,2.486488 1.91836,0.667801 4.70186,0.06656 6.48372,-1.532049 1.48991,-2.174291 -0.55916,-1.060525 7.69988,-1.521404 0.42827,4.211352 0.46643,8.036403 -0.75596,9.638394 -2.79364,3.529715 -3.47286,4.442238 -8.50446,6.047618 -4.97484,0.94367 -9.04193,1.526352 -19.27678,-1.322915 -2.07621,5.038349 -2.99463,7.135455 -6.61459,12.095236 -3.1498,4.472718 -10.62693,8.548068 -14.55208,10.394348 -3.79714,1.88452 -11.06104,3.89777 -15.30804,5.85863 -4.59871,1.38591 -22.43002,6.23691 -34.212404,7.98892 -10.988314,1.96347 -38.552699,2.59441 -47.430448,1.27149 -8.935219,-1.58624 -15.456422,-2.60522 -20.410713,-7.55951 -4.892361,-5.30006 -6.922647,-9.54183 -7.9375,-14.17412 -1.640388,-6.014036 -2.953243,-12.594053 -2.645834,-22.489579 z" style="fill:#8cd5da;fill-opacity:1;stroke:none;stroke-width:2.96499991;stroke-linecap:butt;stroke-linejoin:round;stroke-miterlimit:4;stroke-dasharray:none;stroke-opacity:1"/>
    </g>
    <g id="layer36">
      <path style="fill:#7eb5b7;fill-opacity:1;stroke:none;stroke-width:0.26458332px;stroke-linecap:butt;stroke-linejoin:miter;stroke-opacity:1" d="m 42.427826,39.976189 c 2.62221,2.118241 1.436644,6.211242 3.614398,7.559524 1.519346,0.870179 5.338913,1.346539 9.638392,0.283482 3.195936,-1.094936 4.724703,-2.094617 5.291667,-4.11049 0.436141,-6.853822 -0.01349,-6.538666 -1.638447,-7.563765 L 51.47563,35.156993 Z" id="path1104"/>
    </g>
    <g style="display:inline" id="g950">
      <path id="path942" d="m 47.306706,45.766643 c -1.603618,-2.850875 -2.700913,-4.814773 -3.58243,-7.087967 -0.758704,-1.821665 -1.914535,-5.383151 -2.56616,-8.730963 -1.125944,-4.495145 -3.919025,-10.657429 -5.878538,-15.986143 4.721761,4.009043 8.627516,6.059669 14.165284,12.027129 3.185394,3.407775 4.628267,5.459335 9.888974,10.156241 0.196961,3.728258 0.03379,6.178534 -2.405428,8.285356 -3.018246,1.768366 -5.78035,2.159134 -9.621702,1.336347 z" style="display:inline;fill:url(#linearGradient4979);fill-opacity:1;stroke:none;stroke-width:0.1;stroke-linecap:round;stroke-linejoin:round;stroke-miterlimit:3.9000001;stroke-dasharray:none;stroke-opacity:1"/>
    </g>
    <g id="layer37">
      <path style="fill:#a5a5a5;fill-opacity:1;stroke:none;stroke-width:0.26458332px;stroke-linecap:butt;stroke-linejoin:miter;stroke-opacity:1" d="m 45.233416,42.007811 c 1.789027,0.04523 3.451103,0.07102 5.179157,-0.377976 2.429735,-0.816919 3.456212,-2.439648 4.582961,-4.11049 -1.396386,1.441897 -2.879579,2.722155 -4.913691,2.976562 -1.88175,0.174425 -3.704956,0.173215 -5.520857,0.150092 z" id="path1107"/>
      <path style="fill:#a5a5a5;fill-opacity:1;stroke:none;stroke-width:0.26458332px;stroke-linecap:butt;stroke-linejoin:miter;stroke-opacity:1" d="m 54.890601,31.924749 c -0.76538,0.962191 -1.337895,2.026486 -2.446404,2.80702 -0.621181,0.432076 -1.668459,0.285879 -2.574965,0.330729 0.808654,-0.231638 1.624824,-0.455134 2.173364,-0.968563 0.982329,-0.925948 1.530144,-2.025701 1.845735,-3.218345 z" id="path1109"/>
      <path style="fill:#a5a5a5;fill-opacity:1;stroke:none;stroke-width:0.26458332px;stroke-linecap:butt;stroke-linejoin:miter;stroke-opacity:1" d="m 41.617707,32.025507 c 1.894987,-0.02046 3.775232,-0.158861 5.58207,-0.884512 2.215162,-1.024388 2.831868,-2.255029 3.732514,-3.449032 -1.212398,0.909809 -2.353287,1.931687 -3.942262,2.489068 -2.009972,0.720229 -3.945618,0.667924 -5.732937,0.274884 z" id="path1111"/>
      <path style="fill:#a5a5a5;fill-opacity:1;stroke:none;stroke-width:0.26458332px;stroke-linecap:butt;stroke-linejoin:miter;stroke-opacity:1" d="m 39.058639,23.631446 c 1.127225,-0.146579 2.68645,-0.222627 3.119833,-0.482486 0.965133,-0.569187 1.595651,-1.281781 2.23931,-1.988744 l 0.22306,0.185688 c -0.269135,1.210692 -1.088081,1.937027 -2.011353,2.571456 -0.483067,0.301662 -1.59694,0.29493 -3.497027,-0.09617 z" id="path1113"/>
    </g>
    <g id="layer35">
      <path style="fill:#7eb5b7;fill-opacity:1;stroke:none;stroke-width:0.26458332px;stroke-linecap:butt;stroke-linejoin:miter;stroke-opacity:1" d="m 47.376953,124.34756 c 0.131444,-0.62754 -0.09795,-0.89424 0.507904,-1.99618 1.969372,-2.31527 4.284138,-3.29398 8.480841,-3.63803 4.376804,-0.33728 8.602956,-0.388 12.269573,-0.39824 1.413022,-0.0266 6.218948,0.83116 12.109891,1.5558 4.25728,0.29368 10.031654,0.31023 14.479534,-0.40328 6.423694,-1.03709 9.568744,-2.61909 13.868684,-4.46317 l 8.52953,4.24648 -11.26986,2.4626 c -9.562487,2.37032 -16.147019,2.51127 -24.521207,3.16555 -7.681694,0.49349 -10.740202,0.43633 -23.245535,0.37798 -7.010698,-0.24755 -7.439495,-0.40589 -11.209355,-0.90951 z" id="path1101"/>
      <path style="fill:#7eb5b7;fill-opacity:1;fill-rule:nonzero;stroke:none;stroke-width:0.37795275;stroke-linecap:round;stroke-linejoin:round;stroke-miterlimit:3.9000001;stroke-dasharray:none;stroke-opacity:1;paint-order:normal" d="M 360.16992 131.22266 A 22.980971 26.516503 0 0 0 357.08984 144.43945 A 22.980971 26.516503 0 0 0 380.07031 170.95508 A 22.980971 26.516503 0 0 0 403.04883 144.49414 C 397.78304 141.9011 392.28274 139.49719 386.51953 137.31055 C 379.12103 135.03018 370.0899 132.98692 360.16992 131.22266 z " transform="scale(0.26458333)" id="path1115"/>
      <ellipse style="fill:#7eb5b7;fill-opacity:1;fill-rule:nonzero;stroke:none;stroke-width:0.1;stroke-linecap:round;stroke-linejoin:round;stroke-miterlimit:3.9000001;stroke-dasharray:none;stroke-opacity:1;paint-order:normal" id="path1117" cx="102.6315" cy="49.775688" rx="1.4699824" ry="2.1381562"/>
      <path style="fill:#7eb5b7;fill-opacity:1;fill-rule:nonzero;stroke:none;stroke-width:0.37795275;stroke-linecap:round;stroke-linejoin:round;stroke-miterlimit:3.9000001;stroke-dasharray:none;stroke-opacity:1;paint-order:normal" d="M 422.51172 155.5918 A 8.3337581 14.394674 0 0 0 418.20312 168.17773 A 8.3337581 14.394674 0 0 0 426.53711 182.57227 A 8.3337581 14.394674 0 0 0 434.87109 168.17773 A 8.3337581 14.394674 0 0 0 434.53711 164.17578 C 430.69037 161.19544 426.68936 158.32631 422.51172 155.5918 z " transform="scale(0.26458333)" id="path1119"/>
      <ellipse style="fill:#7eb5b7;fill-opacity:1;fill-rule:nonzero;stroke:none;stroke-width:0.0918225;stroke-linecap:round;stroke-linejoin:round;stroke-miterlimit:3.9000001;stroke-dasharray:none;stroke-opacity:1;paint-order:normal" id="path1121" cx="108.24416" cy="50.109776" rx="2.0045214" ry="2.8731475"/>
      <ellipse style="fill:#7eb5b7;fill-opacity:1;fill-rule:nonzero;stroke:none;stroke-width:0.1;stroke-linecap:round;stroke-linejoin:round;stroke-miterlimit:3.9000001;stroke-dasharray:none;stroke-opacity:1;paint-order:normal" id="path1123" cx="105.37102" cy="53.584278" rx="0.86862594" ry="1.2695302"/>
      <path style="fill:#7eb5b7;fill-opacity:1;fill-rule:nonzero;stroke:none;stroke-width:0.37795275;stroke-linecap:round;stroke-linejoin:round;stroke-miterlimit:3.9000001;stroke-dasharray:none;stroke-opacity:1;paint-order:normal" d="M 451.71289 179.17383 A 20.960665 25.253813 0 0 0 444.4668 198.23047 A 20.960665 25.253813 0 0 0 465.42773 223.48438 A 20.960665 25.253813 0 0 0 480.49414 215.74805 C 476.08688 208.87798 471.79823 202.38173 467.85742 196.80469 C 462.83357 190.71697 457.4729 184.81472 451.71289 179.17383 z " transform="scale(0.26458333)" id="path1125"/>
      <ellipse style="fill:#7eb5b7;fill-opacity:1;fill-rule:nonzero;stroke:none;stroke-width:0.1;stroke-linecap:round;stroke-linejoin:round;stroke-miterlimit:3.9000001;stroke-dasharray:none;stroke-opacity:1;paint-order:normal" id="path1127" cx="114.39135" cy="53.651093" rx="2.271791" ry="2.6726952"/>
      <ellipse style="fill:#7eb5b7;fill-opacity:1;fill-rule:nonzero;stroke:none;stroke-width:0.1;stroke-linecap:round;stroke-linejoin:round;stroke-miterlimit:3.9000001;stroke-dasharray:none;stroke-opacity:1;paint-order:normal" id="path1129" cx="115.05952" cy="59.931931" rx="1.0690781" ry="1.6036172"/>
      <ellipse style="fill:#7eb5b7;fill-opacity:1;fill-rule:nonzero;stroke:none;stroke-width:0.1;stroke-linecap:round;stroke-linejoin:round;stroke-miterlimit:3.9000001;stroke-dasharray:none;stroke-opacity:1;paint-order:normal" id="path1131" cx="119.80357" cy="64.141426" rx="2.6058779" ry="4.07586"/>
      <ellipse style="fill:#7eb5b7;fill-opacity:1;fill-rule:nonzero;stroke:none;stroke-width:0.10350984;stroke-linecap:round;stroke-linejoin:round;stroke-miterlimit:3.9000001;stroke-dasharray:none;stroke-opacity:1;paint-order:normal" id="path1133" cx="117.06405" cy="71.558151" rx="1.7372519" ry="2.0045214"/>
      <path style="fill:#7eb5b7;fill-opacity:1;fill-rule:nonzero;stroke:none;stroke-width:0.37795275;stroke-linecap:round;stroke-linejoin:round;stroke-miterlimit:3.9000001;stroke-dasharray:none;stroke-opacity:1;paint-order:normal" d="M 484.82422 222.57812 A 12.121831 20.45559 0 0 0 483.35742 232.32227 A 12.121831 20.45559 0 0 0 495.48047 252.7793 A 12.121831 20.45559 0 0 0 501.78125 249.77539 C 496.33357 241.00846 490.55302 231.65245 484.82422 222.57812 z " transform="scale(0.26458333)" id="path1135"/>
      <ellipse style="fill:#7eb5b7;fill-opacity:1;fill-rule:nonzero;stroke:none;stroke-width:0.1;stroke-linecap:round;stroke-linejoin:round;stroke-miterlimit:3.9000001;stroke-dasharray:none;stroke-opacity:1;paint-order:normal" id="path1137" cx="126.88621" cy="71.357697" rx="1.9377041" ry="2.6058779"/>
      <path style="fill:#7eb5b7;fill-opacity:1;fill-rule:nonzero;stroke:none;stroke-width:0.37795275;stroke-linecap:round;stroke-linejoin:round;stroke-miterlimit:3.9000001;stroke-dasharray:none;stroke-opacity:1;paint-order:normal" d="M 505.85352 256.28711 A 7.5761439 11.111678 0 0 0 502.04492 265.91016 A 7.5761439 11.111678 0 0 0 509.62109 277.02148 A 7.5761439 11.111678 0 0 0 515.93945 272.0293 C 512.93334 267.51713 509.48355 262.08156 505.85352 256.28711 z " transform="scale(0.26458333)" id="path1139"/>
      <ellipse style="fill:#7eb5b7;fill-opacity:1;fill-rule:nonzero;stroke:none;stroke-width:0.1;stroke-linecap:round;stroke-linejoin:round;stroke-miterlimit:3.9000001;stroke-dasharray:none;stroke-opacity:1;paint-order:normal" id="path1141" cx="125.54986" cy="66.079124" rx="1.6704345" ry="2.1381562"/>
      <ellipse style="fill:#7eb5b7;fill-opacity:1;fill-rule:nonzero;stroke:none;stroke-width:0.1;stroke-linecap:round;stroke-linejoin:round;stroke-miterlimit:3.9000001;stroke-dasharray:none;stroke-opacity:1;paint-order:normal" id="path1143" cx="124.48078" cy="75.16629" rx="1.403165" ry="1.6036172"/>
      <path style="fill:#7eb5b7;fill-opacity:1;fill-rule:nonzero;stroke:none;stroke-width:0.37795275;stroke-linecap:round;stroke-linejoin:round;stroke-miterlimit:3.9000001;stroke-dasharray:none;stroke-opacity:1;paint-order:normal" d="M 580.10547 243.26562 A 18.160007 17.511809 0 0 0 574.77734 255.64258 A 18.160007 17.511809 0 0 0 592.9375 273.1543 A 18.160007 17.511809 0 0 0 606.84961 266.89453 C 602.49759 265.12674 598.50417 263.03872 594.32812 259.33008 C 588.34116 254.50188 594.71314 251.28285 580.10547 243.26562 z " transform="scale(0.26458333)" id="path1145"/>
      <path style="fill:#7eb5b7;fill-opacity:1;fill-rule:nonzero;stroke:none;stroke-width:0.37795275;stroke-linecap:round;stroke-linejoin:round;stroke-miterlimit:3.9000001;stroke-dasharray:none;stroke-opacity:1;paint-order:normal" d="M 630.1875 269.55273 C 626.43264 269.6013 621.41173 270.61284 616.60938 270.05273 A 14.134072 14.964101 0 0 0 614.12695 278.52148 A 14.134072 14.964101 0 0 0 628.26172 293.48633 A 14.134072 14.964101 0 0 0 640.3418 286.25391 C 636.99521 283.23395 637.62023 276.25939 635.71484 271.80469 C 634.84894 269.9703 632.83259 269.51852 630.1875 269.55273 z " transform="scale(0.26458333)" id="path1147"/>
      <path style="fill:#7eb5b7;fill-opacity:1;fill-rule:nonzero;stroke:none;stroke-width:0.37795275;stroke-linecap:round;stroke-linejoin:round;stroke-miterlimit:3.9000001;stroke-dasharray:none;stroke-opacity:1;paint-order:normal" d="M 661.7207 276.76953 C 661.13989 276.75019 660.56548 276.76004 660 276.80469 C 657.32905 277.71389 654.92334 279.7073 652.6875 281.74219 A 15.657365 18.687821 0 0 0 668.2168 298.23438 A 15.657365 18.687821 0 0 0 683.32812 284.35156 C 676.47702 281.4712 668.60427 276.99875 661.7207 276.76953 z " transform="scale(0.26458333)" id="path1149"/>
      <path style="fill:#7eb5b7;fill-opacity:1;fill-rule:nonzero;stroke:none;stroke-width:0.37795275;stroke-linecap:round;stroke-linejoin:round;stroke-miterlimit:3.9000001;stroke-dasharray:none;stroke-opacity:1;paint-order:normal" d="M 734.66016 274.99023 C 712.32419 275.72864 718.16056 272.94093 713.04102 280.41211 C 710.79458 282.42752 708.1239 284.01391 705.29688 285.15234 A 15.152287 21.718278 0 0 0 720.23828 303.28516 A 15.152287 21.718278 0 0 0 735.39062 281.56836 A 15.152287 21.718278 0 0 0 734.66016 274.99023 z " transform="scale(0.26458333)" id="path1151"/>
      <ellipse style="fill:#7eb5b7;fill-opacity:1;fill-rule:nonzero;stroke:none;stroke-width:0.06957918;stroke-linecap:round;stroke-linejoin:round;stroke-miterlimit:3.9000001;stroke-dasharray:none;stroke-opacity:1;paint-order:normal" id="path1153" cx="184.63185" cy="78.452217" rx="1.2541068" ry="1.7921939"/>
      <ellipse style="fill:#7eb5b7;fill-opacity:1;fill-rule:nonzero;stroke:none;stroke-width:0.1;stroke-linecap:round;stroke-linejoin:round;stroke-miterlimit:3.9000001;stroke-dasharray:none;stroke-opacity:1;paint-order:normal" id="path1155" cx="171.31161" cy="77.478035" rx="1.3444973" ry="1.4300227"/>
      <ellipse style="fill:#7eb5b7;fill-opacity:1;fill-rule:nonzero;stroke:none;stroke-width:0.12247449;stroke-linecap:round;stroke-linejoin:round;stroke-miterlimit:3.9000001;stroke-dasharray:none;stroke-opacity:1;paint-order:normal" id="path1157" cx="178.0015" cy="80.244408" rx="1.0690781" ry="1.2027129"/>
      <ellipse style="fill:#7eb5b7;fill-opacity:1;fill-rule:nonzero;stroke:none;stroke-width:0.1;stroke-linecap:round;stroke-linejoin:round;stroke-miterlimit:3.9000001;stroke-dasharray:none;stroke-opacity:1;paint-order:normal" id="path1159" cx="183.14644" cy="81.781204" rx="1.1358955" ry="1.5367998"/>
      <ellipse style="fill:#7eb5b7;fill-opacity:1;fill-rule:nonzero;stroke:none;stroke-width:0.1;stroke-linecap:round;stroke-linejoin:round;stroke-miterlimit:3.9000001;stroke-dasharray:none;stroke-opacity:1;paint-order:normal" id="path1162" cx="157.55539" cy="74.69857" rx="1.4699824" ry="1.6704345"/>
      <ellipse style="fill:#7eb5b7;fill-opacity:1;fill-rule:nonzero;stroke:none;stroke-width:0.1;stroke-linecap:round;stroke-linejoin:round;stroke-miterlimit:3.9000001;stroke-dasharray:none;stroke-opacity:1;paint-order:normal" id="path1165" cx="153.67998" cy="74.097214" rx="1.0690781" ry="1.4699824"/>
      <ellipse style="fill:#7eb5b7;fill-opacity:1;fill-rule:nonzero;stroke:none;stroke-width:0.11094004;stroke-linecap:round;stroke-linejoin:round;stroke-miterlimit:3.9000001;stroke-dasharray:none;stroke-opacity:1;paint-order:normal" id="path1167" cx="160.42853" cy="73.161774" rx="0.86862594" ry="1.0690781"/>
      <ellipse style="fill:#7eb5b7;fill-opacity:1;fill-rule:nonzero;stroke:none;stroke-width:0.11126973;stroke-linecap:round;stroke-linejoin:round;stroke-miterlimit:3.9000001;stroke-dasharray:none;stroke-opacity:1;paint-order:normal" id="path1169" cx="161.83168" cy="77.438087" rx="1.4699824" ry="1.7372519"/>
      <ellipse style="fill:#7eb5b7;fill-opacity:1;fill-rule:nonzero;stroke:none;stroke-width:0.10571883;stroke-linecap:round;stroke-linejoin:round;stroke-miterlimit:3.9000001;stroke-dasharray:none;stroke-opacity:1;paint-order:normal" id="path1171" cx="174.9279" cy="81.113037" rx="1.0690781" ry="1.2695302"/>
      <ellipse style="fill:#7eb5b7;fill-opacity:1;fill-rule:nonzero;stroke:none;stroke-width:0.08865128;stroke-linecap:round;stroke-linejoin:round;stroke-miterlimit:3.9000001;stroke-dasharray:none;stroke-opacity:1;paint-order:normal" id="path1174" cx="186.95981" cy="83.899872" rx="1.7420223" ry="2.4527469"/>
    </g>
    <g id="layer38">
      <g id="layer39">
        <path style="fill:#ae7c47;stroke:none;stroke-width:0.265;stroke-linecap:butt;stroke-linejoin:miter;stroke-opacity:1;fill-opacity:1;stroke-miterlimit:4;stroke-dasharray:none" d="m 45.750334,135.60023 c 0.337831,9.75944 5.520845,13.1098 10.242632,13.73336 l 30.899273,-2.8427 c 2.4899,-0.1997 2.563491,-2.67358 3.004814,-4.80135 l 23.043317,-4.38701 c 1.35729,-0.31848 0.8392,-1.94972 1.06907,-3.05739 l 24.02855,-4.87292 c 1.47253,2.40736 3.09677,3.86652 5.07141,3.13567 3.91356,-1.28113 2.78108,-6.72524 1.78983,-12.05284 -0.8075,-6.52749 -3.2661,-10.5558 -6.3832,-10.02261 -2.64356,0.548 -2.40146,3.39024 -2.56953,5.41974 l -24.02739,5.03505 c -0.53606,-1.16493 -1.01361,-2.4703 -2.15831,-2.17452 l -22.731784,2.52836 c -0.987711,-2.09609 -1.56321,-4.71432 -4.346727,-4.53572 l -29.293153,2.17337 c -4.810289,1.79417 -7.985107,5.62253 -7.638802,16.72151 z" id="path999"/>
      </g>
      <g id="layer40">
        <ellipse style="fill:#079da7;fill-opacity:1;fill-rule:nonzero;stroke:none;stroke-width:0.24246413;stroke-linecap:round;stroke-linejoin:round;stroke-miterlimit:4;stroke-dasharray:none;stroke-opacity:1;paint-order:normal" id="path1005" ry="12.641585" rx="5.3345709" cy="136.79637" cx="43.921543" transform="matrix(0.9987684,-0.0496153,0.06569857,0.99783952,0,0)"/>
      </g>
      <g id="layer41">
        <path style="fill:#ffffff;fill-opacity:1;fill-rule:nonzero;stroke:none;stroke-width:1.00157475;stroke-linecap:round;stroke-linejoin:round;stroke-miterlimit:4;stroke-dasharray:none;stroke-opacity:1;paint-order:normal" d="M 197.32227 461.34766 A 15.543147 32.601525 0 0 0 181.77734 493.94922 A 15.543147 32.601525 0 0 0 183.39844 508.29297 A 20.20305 28.536809 0 0 1 203.54492 481.32617 A 20.20305 28.536809 0 0 1 212.10352 484.04883 A 15.543147 32.601525 0 0 0 197.32227 461.34766 z " transform="scale(0.26458333)" id="path1008"/>
        <ellipse style="fill:#ffffff;fill-opacity:1;fill-rule:nonzero;stroke:none;stroke-width:0.305163;stroke-linecap:round;stroke-linejoin:round;stroke-miterlimit:4;stroke-dasharray:none;stroke-opacity:1;paint-order:normal" id="path1044" cx="55.291386" cy="130.65814" rx="1.1024867" ry="2.0379303"/>
      </g>
    </g>
    <g id="layer34">
      <path style="fill:#769b9d;fill-opacity:0.53333285;stroke:none;stroke-width:0.26499999;stroke-linecap:butt;stroke-linejoin:miter;stroke-miterlimit:4;stroke-dasharray:none;stroke-opacity:1" d="m 101.29762,110.27976 v 0 c -0.52243,0.94142 -0.4731,1.20947 -0.56469,1.78831 -0.0951,1.09779 7.86204,6.59967 13.41867,7.81388 l 3.47131,-0.63101 z" id="path1096"/>
      <path style="fill:#769b9d;fill-opacity:0.53333297;stroke:none;stroke-width:0.26458332px;stroke-linecap:butt;stroke-linejoin:miter;stroke-opacity:1" d="m 123.97619,101.58631 c 0.69752,0.23166 1.66913,0.18925 2.03162,0.75595 0.87847,1.24301 1.66939,3.96875 2.50409,5.95313 0.69456,1.71175 2.42535,4.18923 4.63022,6.2366 l -1.7954,0.85045 -7.46502,-5.95313 z" id="path1098"/>
    </g>
    <g id="g1036">
      <path id="path1034" d="m 101.29762,110.27976 c 4.59871,4.03175 5.83438,5.03958 13.22916,8.69345 5.02999,2.26542 17.41841,2.04737 24.56846,0.37798 -15.42716,-12.02167 -11.7332,-12.81447 -15.11905,-17.76488" style="fill:#8cd5da;stroke:none;stroke-width:1.865;stroke-linecap:round;stroke-linejoin:round;stroke-miterlimit:4;stroke-dasharray:none;stroke-opacity:1;fill-opacity:1"/>
    </g>
    <g id="g1056">
      <path id="path1054" d="m 36.084183,106.27874 c 1.870887,2.22725 10.466481,1.63384 14.633009,1.67044 3.944823,0.0396 19.99086,0.5445 21.181109,-2.47225" style="display:inline;fill:none;stroke:#698189;stroke-width:2.265;stroke-linecap:round;stroke-linejoin:round;stroke-miterlimit:4;stroke-dasharray:none;stroke-opacity:1"/>
    </g>
    <g id="g1084">
      <ellipse ry="6.2973299" rx="5.575963" cy="96.468811" cx="29.133776" id="ellipse1076" style="fill:#ffffff;fill-opacity:0.95073888;fill-rule:nonzero;stroke:none;stroke-width:2.52619052;stroke-linecap:round;stroke-linejoin:round;stroke-miterlimit:4;stroke-dasharray:none;stroke-opacity:1;paint-order:normal"/>
      <ellipse ry="7.7508163" rx="8.0180855" cy="95.478775" cx="80.715401" id="ellipse1078" style="fill:#ffffff;fill-opacity:0.95073888;fill-rule:nonzero;stroke:none;stroke-width:2.7650001;stroke-linecap:round;stroke-linejoin:round;stroke-miterlimit:4;stroke-dasharray:none;stroke-opacity:1;paint-order:normal"/>
      <ellipse ry="1.4551606" rx="1.463267" cy="98.380989" cx="30.657713" id="ellipse1080" style="fill:#4b4b4b;fill-opacity:0.94901961;fill-rule:nonzero;stroke:none;stroke-width:4.12799549;stroke-linecap:round;stroke-linejoin:round;stroke-miterlimit:4;stroke-dasharray:none;stroke-opacity:1;paint-order:normal"/>
      <ellipse ry="1.4551606" rx="1.463267" cy="97.946899" cx="80.122612" id="ellipse1082" style="fill:#4b4b4b;fill-opacity:0.95073891;fill-rule:nonzero;stroke:none;stroke-width:4.12799549;stroke-linecap:round;stroke-linejoin:round;stroke-miterlimit:4;stroke-dasharray:none;stroke-opacity:1;paint-order:normal"/>
    </g>
  </g>
  <g id="layer22" style="display:none">
    <g id="layer27">
      <path style="fill:#8cd5da;fill-opacity:1;stroke:#000000;stroke-width:1.46500003;stroke-linecap:round;stroke-linejoin:round;stroke-miterlimit:4;stroke-dasharray:none;stroke-opacity:1" d="m 89.580354,76.072912 c -0.881944,1.85674 -1.007935,3.88636 -1.889879,5.858633 -1.458366,2.857568 -2.83482,4.693205 -3.874254,7.181549 2.456845,-0.661458 4.191254,-1.142308 7.370535,-1.984375 2.112418,-0.846342 3.984498,-2.315104 5.480653,-4.252232 1.690294,-2.605795 2.280657,-3.671685 3.401791,-5.480656 l -5.386166,-4.063243 z" id="path1173"/>
    </g>
    <g id="layer23">
      <path style="fill:#8cd5da;fill-opacity:1;stroke:#000000;stroke-width:1.46500003;stroke-linecap:butt;stroke-linejoin:round;stroke-miterlimit:4;stroke-dasharray:none;stroke-opacity:1" d="m 53.294642,70.025296 c -0.334487,-0.99863 1.007937,-2.393849 1.511906,-3.590774 0.07945,-6.250253 0.169436,-13.270681 0.755951,-17.197916 0.964238,-5.605013 2.984267,-6.703032 6.803573,-8.504465 4.662366,-1.852007 9.627143,-2.069711 14.74107,-1.700893 15.663738,0.923234 18.203997,2.065439 25.702378,5.10268 7.08685,2.897817 11.35937,5.060643 16.63095,8.693452 4.91129,3.225548 7.99014,6.573384 10.77233,10.016368 2.96429,3.241289 3.66632,6.888053 5.11217,16.558235 0.1274,3.231313 -2.85078,9.776916 -5.66964,15.02177 -1.80549,3.036693 -5.4526,7.495327 -9.08093,10.942317 -3.55584,3.30386 -3.38243,3.25644 -5.95312,5.57515 1.63117,2.65855 4.70082,3.12338 4.91369,7.843 0.21893,5.75381 -4.88219,7.71701 -9.02418,10.77232 -2.83482,-3.02381 -2.5041,-9.63839 -2.5041,-9.63839 l -4.44122,-4.6302 -5.575141,-0.94494 c 0,0 -4.617105,1.96359 -8.031997,2.74032 0.994505,-5.08554 2.18857,-9.28214 6.331101,-11.1503 5.137197,-1.61052 7.503027,-0.2408 10.866817,0.56697 l 5.29167,-6.04762 1.88988,-11.150299 -7.37054,-6.80357 -17.386904,-6.425597 -22.111607,-1.133927 c -2.330853,-0.063 -3.663879,-0.07687 -6.992559,-0.188989 -1.516162,-0.163777 -1.31449,-2.381257 -1.889882,-3.590774 4.031702,-0.503924 7.935193,-0.879636 12.095239,-1.511904 1.658385,-0.986683 2.645833,-1.637897 3.96875,-2.456846 -1.723308,0.818949 -2.89829,1.637897 -5.291666,2.456846 -3.175922,0.566964 -11.780259,1.464658 -13.418156,1.700893 -1.180074,-0.242219 -1.994033,-0.618272 -2.645833,-1.322917 z" id="path1156"/>
    </g>
    <g id="layer24" style="display:none">
      <ellipse style="fill:#ffffff;fill-opacity:1;fill-rule:nonzero;stroke:#000000;stroke-width:1.13300002;stroke-linecap:round;stroke-linejoin:round;stroke-miterlimit:4;stroke-dasharray:none;stroke-opacity:1;paint-order:normal" id="path1161" cx="79.88018" cy="64.00779" rx="2.8714283" ry="2.6375668"/>
    </g>
    <g id="layer28" style="display:none">
      <circle style="fill:#000000;fill-opacity:1;fill-rule:nonzero;stroke:#000000;stroke-width:1.46499991;stroke-linecap:round;stroke-linejoin:round;stroke-miterlimit:4;stroke-dasharray:none;stroke-opacity:1;paint-order:normal" id="path1176" cx="79.211517" cy="64.453079" r="0.51783472"/>
    </g>
    <g id="layer29">
      <ellipse style="fill:#000000;fill-opacity:1;fill-rule:nonzero;stroke:#000000;stroke-width:1.53645706;stroke-linecap:round;stroke-linejoin:round;stroke-miterlimit:4;stroke-dasharray:none;stroke-opacity:1;paint-order:normal" id="path1078" cx="78.952446" cy="63.742832" rx="1.226401" ry="1.2635646"/>
    </g>
    <g id="layer26" style="display:inline">
      <path style="fill:none;stroke:#000000;stroke-width:1.46500003;stroke-linecap:round;stroke-linejoin:round;stroke-miterlimit:4;stroke-dasharray:none;stroke-opacity:1" d="m 95.548856,76.101733 c 0.267244,3.251654 0.35034,5.582569 0.801807,9.755338 0.816066,4.857168 2.53168,6.097278 5.182107,9.393575 1.51453,-1.683456 2.46209,-3.052897 3.50415,-6.251192 0.66689,-2.348157 1.52313,-4.097727 2.47368,-5.933979 0.66574,-1.396852 2.89152,-2.960591 4.60896,-4.15741" id="path1166"/>
    </g>
    <g id="layer25">
      <path style="fill:#ffffff;fill-opacity:1;stroke:#000000;stroke-width:1.36500001;stroke-linecap:butt;stroke-linejoin:round;stroke-miterlimit:4;stroke-dasharray:none;stroke-opacity:1" d="m 29.576637,55.567707 c 11.024306,1.511904 18.488894,3.727673 25.702381,3.968749 1.884673,0.01845 3.06289,-0.467073 3.212796,-3.118302 -0.517034,-2.241726 -1.444616,-3.048143 -2.83482,-4.157739 -4.157738,0.220486 -4.956764,0.264198 -12.473215,0.661458 -5.476753,0.411425 -9.071428,1.763889 -13.607142,2.645834 z" id="path1164"/>
    </g>
    <g id="layer30">
      <path style="fill:#d1d1d1;fill-opacity:1;stroke:#000000;stroke-width:1.39999998;stroke-linecap:round;stroke-linejoin:round;stroke-miterlimit:4;stroke-dasharray:none;stroke-opacity:1" d="m 57.990685,63.930429 c -1.34318,-0.746481 -1.105462,-2.162739 -3.008004,-2.126115 -2.181238,0.275607 -1.675592,1.2583 -3.451815,2.406239 -1.379549,0.742096 -2.200927,0.89723 -4.504104,1.613115 2.822894,1.121537 4.075254,1.607984 6.063256,1.62736 2.008881,-0.139453 2.823565,0.0015 5.165561,-0.922013 2.371311,1.043176 3.293313,1.272413 8.048206,0.504895 1.927956,-0.410864 4.613997,-1.890808 6.78736,-3.103481 -2.094618,-0.125992 -5.017932,0.339941 -6.283854,-0.377976 -1.393787,-0.897694 -2.140077,-2.157646 -4.393973,-2.267858 -1.393028,0.02334 -3.209959,1.267796 -4.422633,2.645834 z" id="path1081"/>
    </g>
    <g id="layer31">
      <circle style="fill:none;fill-opacity:1;fill-rule:nonzero;stroke:#ffd700;stroke-width:1.39999998;stroke-linecap:round;stroke-linejoin:round;stroke-miterlimit:4;stroke-dasharray:none;stroke-opacity:1;paint-order:normal" id="path2542" cx="79.345642" cy="62.638035" r="4.3765388"/>
      <path style="fill:none;stroke:#ffd700;stroke-width:1.46500003;stroke-linecap:round;stroke-linejoin:round;stroke-miterlimit:4;stroke-dasharray:none;stroke-opacity:1" d="m 82.051744,66.279579 c 1.084711,1.281381 2.600567,2.275331 3.207234,3.875408 0.681143,2.672413 -0.708231,3.865886 -1.135896,5.746295 -0.03485,2.268391 0.935445,3.029054 1.403167,4.543581" id="path2544"/>
    </g>
    <g id="layer32">
      <path style="fill:#848484;fill-opacity:1;stroke:#000000;stroke-width:1.36500001;stroke-linecap:round;stroke-linejoin:round;stroke-miterlimit:4;stroke-dasharray:none;stroke-opacity:1" d="m 70.52673,36.877965 c -0.199566,1.175499 1.939254,1.912805 5.612659,2.806329 4.153814,1.013397 6.764261,1.534972 12.561668,1.336347 6.110893,-0.477967 9.432395,-0.601355 9.488069,-2.00452 0.137017,-1.655916 -4.821987,-1.759524 -7.416728,-2.271791 1.646742,-7.174276 2.516787,-8.864439 3.80859,-12.962572 -8.620091,-2.471168 -9.385238,-2.652891 -18.307963,-1.069079 0.801808,4.365403 1.776882,6.64517 2.27179,13.363477 5.39776,0.126291 8.196267,0.300679 12.227583,0.668174 L 78.544815,36.076156 c -2.784058,-0.244997 -7.921876,-0.303295 -8.018085,0.801809 z" id="path2547"/>
    </g>
  </g>
</svg>
